# xmcd CD database file
#
# Track frame offsets:
#	150
#	8740
#	24882
#	44448
#	55291
#	74820
#	90955
#	102900
#	112022
#	125986
#	148964
#	166115
#	185854
#	197117
#	210879
#	225278
#	236210
#	249730
#	268025
#	286329
#	296971
#	328677
#
# Disc length: 4745 seconds
#
# Revision: 0
# Processed by: cddbd v1.5.1PL2 Copyright (c) Steve Scherf et al.
# Submitted via: Feurio! 1.68 - http://www.feurio.com
#
DISCID=53128716
DTITLE=Pappo's Blues - El Auto Rojo
DYEAR=1900
DGENRE=
TTITLE0=El Auto Rojo
TTITLE1=Gris y Amarillo
TTITLE2=Un Viejo Blues
TTITLE3=Con Viejas Locas
TTITLE4=Algo Ha Cambiado
TTITLE5=Whisky Malo
TTITLE6=Juntos A La Par
TTITLE7=Tributo A BB King
TTITLE8=Tren De Las 16
TTITLE9=Longchamps Boogie
TTITLE10=Tren Azul
TTITLE11=Sucio Y Desprolijo
TTITLE12=Buscando Un Amor
TTITLE13=Desconfio De La Vida
TTITLE14=Rock Me Baby
TTITLE15=Sube A Mi Voiture
TTITLE16=Ruta 66
TTITLE17=Cruzado American En Un Taxi
TTITLE18=Elviejo
TTITLE19=Blues Local
TTITLE20=Blues Para Mi Guitarra
TTITLE21=Siempre Lo Mismo Nena
EXTD=
EXTT0=
EXTT1=
EXTT2=
EXTT3=
EXTT4=
EXTT5=
EXTT6=
EXTT7=
EXTT8=
EXTT9=
EXTT10=
EXTT11=
EXTT12=
EXTT13=
EXTT14=
EXTT15=
EXTT16=
EXTT17=
EXTT18=
EXTT19=
EXTT20=
EXTT21=
PLAYORDER=
